<mxfile host="app.diagrams.net" agent="Mozilla/5.0 (Windows NT 10.0; Win64; x64; rv:138.0) Gecko/20100101 Firefox/138.0" version="27.0.5">
  <diagram name="Page-1" id="s-J94wEEUe3iz48gaH5L">
    <mxGraphModel dx="1310" dy="785" grid="1" gridSize="10" guides="1" tooltips="1" connect="1" arrows="1" fold="1" page="1" pageScale="1" pageWidth="3300" pageHeight="4681" math="0" shadow="0">
      <root>
        <mxCell id="0" />
        <mxCell id="1" parent="0" />
        <mxCell id="0ih1GEEYaqwmvJiszMo7-3" style="edgeStyle=orthogonalEdgeStyle;rounded=0;orthogonalLoop=1;jettySize=auto;html=1;exitX=1;exitY=0.5;exitDx=0;exitDy=0;entryX=0;entryY=0.5;entryDx=0;entryDy=0;" edge="1" parent="1" source="0ih1GEEYaqwmvJiszMo7-1" target="0ih1GEEYaqwmvJiszMo7-2">
          <mxGeometry relative="1" as="geometry" />
        </mxCell>
        <mxCell id="0ih1GEEYaqwmvJiszMo7-1" value="data:image&#xa;Raw Mammogram" style="rectangle;fillColor=#fff2cc;strokeColor=#d6b656;" name="data" vertex="1" parent="1">
          <mxGeometry x="340" y="230" width="100" height="50" as="geometry" />
        </mxCell>
        <mxCell id="0ih1GEEYaqwmvJiszMo7-5" style="edgeStyle=orthogonalEdgeStyle;rounded=0;orthogonalLoop=1;jettySize=auto;html=1;exitX=1;exitY=0.5;exitDx=0;exitDy=0;entryX=0.5;entryY=0;entryDx=0;entryDy=0;" edge="1" parent="1" source="0ih1GEEYaqwmvJiszMo7-2" target="0ih1GEEYaqwmvJiszMo7-4">
          <mxGeometry relative="1" as="geometry" />
        </mxCell>
        <mxCell id="0ih1GEEYaqwmvJiszMo7-2" value="transform" style="rounded=1;whiteSpace=wrap;html=1;arcSize=50;fillColor=#f8cecc;strokeColor=#b85450;" name="transform" vertex="1" parent="1">
          <mxGeometry x="520" y="230" width="100" height="50" as="geometry" />
        </mxCell>
        <mxCell id="0ih1GEEYaqwmvJiszMo7-7" style="edgeStyle=orthogonalEdgeStyle;rounded=0;orthogonalLoop=1;jettySize=auto;html=1;exitX=0.5;exitY=1;exitDx=0;exitDy=0;entryX=1;entryY=0.5;entryDx=0;entryDy=0;" edge="1" parent="1" source="0ih1GEEYaqwmvJiszMo7-4" target="0ih1GEEYaqwmvJiszMo7-6">
          <mxGeometry relative="1" as="geometry" />
        </mxCell>
        <mxCell id="0ih1GEEYaqwmvJiszMo7-4" value="data:image&#xa;Preprocessed&#xa;Mammogram" style="rectangle;fillColor=#fff2cc;strokeColor=#d6b656;" name="data" vertex="1" parent="1">
          <mxGeometry x="650" y="330" width="100" height="50" as="geometry" />
        </mxCell>
        <mxCell id="0ih1GEEYaqwmvJiszMo7-9" style="edgeStyle=orthogonalEdgeStyle;rounded=0;orthogonalLoop=1;jettySize=auto;html=1;exitX=0;exitY=0.5;exitDx=0;exitDy=0;entryX=0.5;entryY=0;entryDx=0;entryDy=0;" edge="1" parent="1" source="0ih1GEEYaqwmvJiszMo7-6" target="0ih1GEEYaqwmvJiszMo7-8">
          <mxGeometry relative="1" as="geometry" />
        </mxCell>
        <mxCell id="0ih1GEEYaqwmvJiszMo7-6" value="transform" style="rounded=1;whiteSpace=wrap;html=1;arcSize=50;fillColor=#f8cecc;strokeColor=#b85450;" name="transform" vertex="1" parent="1">
          <mxGeometry x="520" y="430" width="100" height="50" as="geometry" />
        </mxCell>
        <mxCell id="0ih1GEEYaqwmvJiszMo7-11" style="edgeStyle=orthogonalEdgeStyle;rounded=0;orthogonalLoop=1;jettySize=auto;html=1;exitX=0.5;exitY=1;exitDx=0;exitDy=0;entryX=0;entryY=0.5;entryDx=0;entryDy=0;" edge="1" parent="1" source="0ih1GEEYaqwmvJiszMo7-8" target="0ih1GEEYaqwmvJiszMo7-10">
          <mxGeometry relative="1" as="geometry" />
        </mxCell>
        <mxCell id="0ih1GEEYaqwmvJiszMo7-8" value="data:numeric&#xa;HF Components" style="rectangle;fillColor=#fff2cc;strokeColor=#d6b656;" name="data" vertex="1" parent="1">
          <mxGeometry x="390" y="530" width="100" height="50" as="geometry" />
        </mxCell>
        <mxCell id="0ih1GEEYaqwmvJiszMo7-13" style="edgeStyle=orthogonalEdgeStyle;rounded=0;orthogonalLoop=1;jettySize=auto;html=1;exitX=1;exitY=0.5;exitDx=0;exitDy=0;entryX=0.5;entryY=0;entryDx=0;entryDy=0;" edge="1" parent="1" source="0ih1GEEYaqwmvJiszMo7-10" target="0ih1GEEYaqwmvJiszMo7-12">
          <mxGeometry relative="1" as="geometry" />
        </mxCell>
        <mxCell id="0ih1GEEYaqwmvJiszMo7-10" value="infer:deduce" style="rounded=1;whiteSpace=wrap;html=1;arcSize=50;fillColor=#bac8d3;strokeColor=#23445d;" name="infer:deduce" vertex="1" parent="1" tooltip="⚠️ Node not part of any valid pattern.">
          <mxGeometry x="520" y="630" width="100" height="50" as="geometry" />
        </mxCell>
        <mxCell id="0ih1GEEYaqwmvJiszMo7-15" style="edgeStyle=orthogonalEdgeStyle;rounded=0;orthogonalLoop=1;jettySize=auto;html=1;exitX=0.5;exitY=1;exitDx=0;exitDy=0;entryX=1;entryY=0.5;entryDx=0;entryDy=0;" edge="1" parent="1" source="0ih1GEEYaqwmvJiszMo7-12" target="0ih1GEEYaqwmvJiszMo7-14">
          <mxGeometry relative="1" as="geometry" />
        </mxCell>
        <mxCell id="0ih1GEEYaqwmvJiszMo7-12" value="symbol&#xa;Initial Detected&#xa;Locations" style="rectangle;fillColor=#dae8fc;strokeColor=#6c8ebf;" name="symbol" vertex="1" parent="1">
          <mxGeometry x="650" y="730" width="100" height="50" as="geometry" />
        </mxCell>
        <mxCell id="0ih1GEEYaqwmvJiszMo7-18" style="edgeStyle=orthogonalEdgeStyle;rounded=0;orthogonalLoop=1;jettySize=auto;html=1;exitX=0;exitY=0.5;exitDx=0;exitDy=0;entryX=0.5;entryY=0;entryDx=0;entryDy=0;" edge="1" parent="1" source="0ih1GEEYaqwmvJiszMo7-14" target="0ih1GEEYaqwmvJiszMo7-17">
          <mxGeometry relative="1" as="geometry" />
        </mxCell>
        <mxCell id="0ih1GEEYaqwmvJiszMo7-14" value="generate:train" style="rounded=1;whiteSpace=wrap;html=1;arcSize=50;fillColor=#e1d5e7;strokeColor=#9673a6;" name="generate:train" vertex="1" parent="1">
          <mxGeometry x="520" y="830" width="100" height="50" as="geometry" />
        </mxCell>
        <mxCell id="0ih1GEEYaqwmvJiszMo7-20" style="edgeStyle=orthogonalEdgeStyle;rounded=0;orthogonalLoop=1;jettySize=auto;html=1;exitX=0.5;exitY=1;exitDx=0;exitDy=0;entryX=0.5;entryY=0;entryDx=0;entryDy=0;" edge="1" parent="1" source="0ih1GEEYaqwmvJiszMo7-17" target="0ih1GEEYaqwmvJiszMo7-19">
          <mxGeometry relative="1" as="geometry" />
        </mxCell>
        <mxCell id="0ih1GEEYaqwmvJiszMo7-17" value="model:hybrid&#xa;ANFIS" style="shape=hexagon;perimeter=hexagonPerimeter2;fillColor=#b0e3e6;strokeColor=#0e8088;" name="model" vertex="1" parent="1">
          <mxGeometry x="380" y="930" width="120" height="50" as="geometry" />
        </mxCell>
        <mxCell id="0ih1GEEYaqwmvJiszMo7-24" style="edgeStyle=orthogonalEdgeStyle;rounded=0;orthogonalLoop=1;jettySize=auto;html=1;exitX=0.5;exitY=1;exitDx=0;exitDy=0;entryX=0.5;entryY=0;entryDx=0;entryDy=0;" edge="1" parent="1" source="0ih1GEEYaqwmvJiszMo7-19" target="0ih1GEEYaqwmvJiszMo7-23">
          <mxGeometry relative="1" as="geometry" />
        </mxCell>
        <mxCell id="0ih1GEEYaqwmvJiszMo7-19" value="infer:deduce" style="rounded=1;whiteSpace=wrap;html=1;arcSize=50;fillColor=#bac8d3;strokeColor=#23445d;" name="infer:deduce" vertex="1" parent="1">
          <mxGeometry x="390" y="1060" width="100" height="50" as="geometry" />
        </mxCell>
        <mxCell id="0ih1GEEYaqwmvJiszMo7-22" style="edgeStyle=orthogonalEdgeStyle;rounded=0;orthogonalLoop=1;jettySize=auto;html=1;exitX=0;exitY=0.5;exitDx=0;exitDy=0;entryX=1;entryY=0.5;entryDx=0;entryDy=0;" edge="1" parent="1" source="0ih1GEEYaqwmvJiszMo7-21" target="0ih1GEEYaqwmvJiszMo7-19">
          <mxGeometry relative="1" as="geometry" />
        </mxCell>
        <mxCell id="0ih1GEEYaqwmvJiszMo7-21" value="symbol&#xa;Initial Detected&#xa;Locations" style="rectangle;fillColor=#dae8fc;strokeColor=#6c8ebf;" name="symbol" vertex="1" parent="1">
          <mxGeometry x="570" y="1060" width="100" height="50" as="geometry" />
        </mxCell>
        <mxCell id="0ih1GEEYaqwmvJiszMo7-23" value="symbol&#xa;Segmented&#xa;Regions" style="rectangle;fillColor=#dae8fc;strokeColor=#6c8ebf;" name="symbol" vertex="1" parent="1">
          <mxGeometry x="390" y="1190" width="100" height="50" as="geometry" />
        </mxCell>
        <mxCell id="0ih1GEEYaqwmvJiszMo7-26" style="edgeStyle=orthogonalEdgeStyle;rounded=0;orthogonalLoop=1;jettySize=auto;html=1;entryX=1;entryY=0.5;entryDx=0;entryDy=0;" edge="1" parent="1" source="0ih1GEEYaqwmvJiszMo7-25" target="0ih1GEEYaqwmvJiszMo7-21">
          <mxGeometry relative="1" as="geometry" />
        </mxCell>
        <mxCell id="0ih1GEEYaqwmvJiszMo7-25" value="infer:deduce" style="rounded=1;whiteSpace=wrap;html=1;arcSize=50;fillColor=#bac8d3;strokeColor=#23445d;" name="infer:deduce" vertex="1" parent="1" tooltip="⚠️ Node not part of any valid pattern.">
          <mxGeometry x="750" y="1060" width="100" height="50" as="geometry" />
        </mxCell>
        <mxCell id="0ih1GEEYaqwmvJiszMo7-28" style="edgeStyle=orthogonalEdgeStyle;rounded=0;orthogonalLoop=1;jettySize=auto;html=1;entryX=1;entryY=0.5;entryDx=0;entryDy=0;" edge="1" parent="1" source="0ih1GEEYaqwmvJiszMo7-27" target="0ih1GEEYaqwmvJiszMo7-25">
          <mxGeometry relative="1" as="geometry" />
        </mxCell>
        <mxCell id="0ih1GEEYaqwmvJiszMo7-27" value="data:numeric&#xa;Patient HF&#xa;Components" style="rectangle;fillColor=#fff2cc;strokeColor=#d6b656;" name="data" vertex="1" parent="1" tooltip="⚠️ Node not part of any valid pattern.">
          <mxGeometry x="930" y="1060" width="100" height="50" as="geometry" />
        </mxCell>
        <mxCell id="0ih1GEEYaqwmvJiszMo7-29" value="error" style="text;html=1;align=center;verticalAlign=middle;whiteSpace=wrap;rounded=0;dashed=1;fillColor=#f5f5f5;fontColor=#333333;strokeColor=#666666;strokeWidth=2;" name="text" vertex="1" parent="1">
          <mxGeometry x="550" y="590" width="40" height="30" as="geometry" />
        </mxCell>
        <mxCell id="0ih1GEEYaqwmvJiszMo7-30" value="error" style="text;html=1;align=center;verticalAlign=middle;whiteSpace=wrap;rounded=0;dashed=1;fillColor=#f5f5f5;fontColor=#333333;strokeColor=#666666;strokeWidth=2;" name="text" vertex="1" parent="1">
          <mxGeometry x="780" y="1020" width="40" height="30" as="geometry" />
        </mxCell>
      </root>
    </mxGraphModel>
  </diagram>
</mxfile>
